<?xml version="1.0" encoding="UTF-8"?>
<!-- Generator: visioncortex VTracer 0.6.12 -->
<svg version="1.1" xmlns="http://www.w3.org/2000/svg" viewBox="0 0 1259 347">
<path d="M0 0 C4.31 -0.29 8.62 -0.47 12.94 -0.62 C14.15 -0.71 15.36 -0.79 16.61 -0.88 C25.55 -1.12 25.55 -1.12 29.79 2.15 C32.06 4.67 34.06 7.22 36 10 C36.94 11.16 37.88 12.32 38.83 13.48 C39.63 14.52 40.43 15.55 41.25 16.62 C42.18 17.83 43.12 19.03 44.05 20.23 C44.29 20.54 44.29 20.54 45.51 22.1 C48.09 25.39 50.73 28.63 53.38 31.88 C53.65 32.21 53.65 32.21 55.02 33.89 C56.68 35.93 58.34 37.96 60 40 C66.68 48.19 73.33 56.39 79.84 64.72 C85.46 71.89 91.24 78.94 97 86 C103.66 94.16 110.29 102.34 116.77 110.64 C121.02 116.07 125.41 121.37 129.81 126.68 C133.44 131.07 137 135.51 140.5 140 C145.69 146.66 151.06 153.17 156.44 159.68 C161.54 165.85 166.58 172.06 171.61 178.28 C172.83 179.79 174.05 181.3 175.27 182.8 C180.35 189.09 185.14 195.52 190 202 C190.17 168.67 190.17 168.67 191 0 C202.22 0 213.44 0 225 0 C225 87.45 225 174.9 225 265 C198 265 198 265 191 258.88 C189.42 256.81 189.42 256.81 188.42 255 C186.03 250.98 183.26 247.44 180.31 243.81 C179.4 242.64 178.48 241.47 177.57 240.29 C174.59 236.46 171.52 232.71 168.44 228.96 C161.39 220.4 154.38 211.81 147.56 203.06 C142.88 197.06 138.06 191.19 133.2 185.33 C129 180.24 124.89 175.09 120.83 169.88 C117.42 165.53 113.95 161.23 110.44 156.96 C102.9 147.79 95.41 138.58 88.09 129.22 C84.26 124.32 80.37 119.46 76.48 114.6 C73.61 111.03 70.77 107.44 67.96 103.83 C61.65 95.75 55.14 87.84 48.61 79.94 C46.35 77.22 44.11 74.49 41.88 71.75 C41.21 70.94 40.55 70.13 39.87 69.3 C37.9 66.88 35.95 64.44 34 62 C33.67 93.35 33.34 124.7 33 157 C24 152.5 24 152.5 21.04 150.05 C20.71 149.78 20.71 149.78 19.05 148.42 C18.39 147.87 17.74 147.32 17.06 146.75 C16.41 146.22 15.76 145.68 15.09 145.13 C13.78 144.05 12.49 142.96 11.22 141.85 C9 140 9 140 6.67 138.37 C3.09 135.68 0.45 133.56 -0.81 129.17 C-1.11 125.74 -1.11 122.41 -1.02 118.97 C-1.02 117.69 -1.02 116.4 -1.03 115.07 C-1.03 111.56 -0.98 108.05 -0.91 104.53 C-0.86 100.86 -0.85 97.18 -0.84 93.5 C-0.81 86.54 -0.74 79.59 -0.65 72.63 C-0.55 64.71 -0.5 56.79 -0.45 48.87 C-0.36 32.58 -0.2 16.29 0 0 Z " fill="#0F3261" transform="translate(314,0)"/>
<path d="M0 0 C18.29 15.87 26.4 34.84 30.67 58.32 C30.67 68.22 30.67 78.12 30.67 88.32 C-19.16 88.65 -68.99 88.98 -120.33 89.32 C-116.1 109.05 -110.43 123.86 -93.33 135.32 C-71.62 147.41 -46.26 148.19 -22.56 141.97 C-13.68 139.42 -5.44 135.52 2.73 131.26 C3.34 130.95 3.95 130.63 4.58 130.3 C7.64 128.64 10.35 126.84 12.98 124.58 C15.67 122.32 15.67 122.32 17.67 122.32 C17.9 126.49 18.06 130.65 18.17 134.81 C18.21 136.23 18.27 137.64 18.35 139.05 C18.98 150.78 18.98 150.78 15.81 154.52 C13.49 156.08 11.24 157.23 8.67 158.32 C7.76 158.87 6.85 159.41 5.91 159.98 C-6.64 166.47 -21.23 171.84 -35.33 173.32 C-36.33 173.43 -37.34 173.54 -38.38 173.65 C-41.7 173.95 -45 174.16 -48.33 174.32 C-49.38 174.38 -50.44 174.43 -51.53 174.49 C-78.23 175.18 -105.48 167.54 -125.4 149.19 C-139.56 135.55 -147.95 119.38 -152.33 100.32 C-152.57 99.26 -152.82 98.2 -153.07 97.11 C-158.03 70.73 -152.98 42.76 -138.33 20.32 C-123.11 -1.09 -101.95 -13.84 -76.33 -18.68 C-49.58 -22.68 -21.18 -17.53 0 0 Z M-108.09 29.83 C-116.45 39.92 -119.16 50.46 -120.33 63.32 C-81.06 63.32 -41.79 63.32 -1.33 63.32 C-2.79 45.78 -7.29 32.49 -20.33 20.32 C-23.52 17.99 -26.8 16.1 -30.33 14.32 C-31.09 13.93 -31.86 13.55 -32.64 13.14 C-58.32 0.91 -89.77 8.91 -108.09 29.83 Z " fill="#0F3261" transform="translate(716.328125,93.67578125)"/>
<path d="M0 0 C13.53 12.67 20.19 29.16 21.26 47.56 C21.32 50.84 21.33 54.11 21.31 57.39 C21.31 58.62 21.31 59.85 21.31 61.12 C21.3 64.45 21.29 67.78 21.28 71.12 C21.27 74.62 21.27 78.12 21.26 81.61 C21.26 88.22 21.24 94.83 21.22 101.44 C21.2 108.97 21.19 116.5 21.18 124.03 C21.16 139.51 21.12 154.98 21.08 170.46 C16.82 170.48 12.57 170.5 8.32 170.51 C6.87 170.52 5.42 170.52 3.97 170.53 C1.89 170.54 -0.18 170.55 -2.26 170.55 C-3.51 170.56 -4.76 170.57 -6.05 170.57 C-8.92 170.46 -8.92 170.46 -9.92 169.46 C-9.97 168 -9.96 166.54 -9.92 165.08 C-9.86 159.49 -10.33 154.01 -10.92 148.46 C-11.37 148.95 -11.82 149.45 -12.29 149.96 C-27.21 165.72 -49.24 172.96 -70.63 173.66 C-94.52 174.03 -117.64 170.67 -135.82 153.71 C-144.31 144.62 -148.99 132.83 -149.92 120.46 C-149.99 119.77 -150.05 119.09 -150.11 118.38 C-150.83 104.42 -145.73 91.04 -137.15 80.22 C-124.32 66.25 -105.11 60.28 -86.92 57.46 C-85.78 57.27 -84.64 57.09 -83.46 56.9 C-76.8 56.1 -70.06 56.22 -63.36 56.21 C-62.63 56.21 -61.9 56.2 -61.15 56.2 C-44.41 56.2 -28.36 58.41 -11.92 61.46 C-9.02 50.91 -11.94 37.46 -17.27 28.08 C-26.43 15.17 -39.05 11.24 -53.92 8.46 C-57.6 7.89 -61.21 7.58 -64.92 7.46 C-65.83 7.42 -66.74 7.38 -67.67 7.34 C-89.22 6.86 -109.99 10.94 -130.92 15.46 C-130.92 6.55 -130.92 -2.36 -130.92 -11.54 C-120.78 -14.92 -120.78 -14.92 -115.19 -15.89 C-113.98 -16.11 -112.76 -16.32 -111.51 -16.54 C-110.26 -16.74 -109.02 -16.95 -107.73 -17.17 C-107.12 -17.28 -107.12 -17.28 -104.02 -17.82 C-70.26 -23.59 -27.38 -23.83 0 0 Z M-109.92 95.46 C-115.08 102.55 -117.69 110.67 -116.92 119.46 C-114.56 129.26 -109.61 136.27 -101.07 141.62 C-83.2 150.7 -59.03 149.02 -40.39 143.39 C-28.58 138.78 -18.12 131.43 -12.8 119.65 C-9.83 112.22 -9.66 104.8 -9.8 96.89 C-9.81 95.89 -9.81 94.88 -9.82 93.84 C-9.85 91.38 -9.88 88.92 -9.92 86.46 C-39.65 79.39 -85.13 73.22 -109.92 95.46 Z " fill="#0897A5" transform="translate(1039.921875,94.54296875)"/>
<path d="M0 0 C10.89 0 21.78 0 33 0 C33 18.48 33 36.96 33 56 C53.46 56 73.92 56 95 56 C95 65.24 95 74.48 95 84 C74.54 84 54.08 84 33 84 C33.13 109.47 33.13 109.47 33.21 120.38 C33.26 127.81 33.31 135.23 33.35 142.66 C33.37 148.65 33.41 154.64 33.46 160.63 C33.48 162.91 33.49 165.19 33.5 167.47 C33.59 199.06 33.59 199.06 43 209 C51.74 215.71 60.27 217.37 71.06 217.31 C71.57 217.31 71.57 217.31 74.14 217.31 C81.21 217.22 87.6 216.46 94.45 214.66 C97 214 97 214 100 214 C100 222.91 100 231.82 100 241 C77.76 247.88 53.57 250.49 31.78 240.51 C17.79 232.92 8.46 222.49 3.77 207.18 C0.94 197.22 -0.15 187.84 -0.11 177.54 C-0.11 176.53 -0.11 175.51 -0.11 174.47 C-0.11 171.13 -0.11 167.8 -0.1 164.47 C-0.1 162.15 -0.09 159.83 -0.09 157.51 C-0.09 151.42 -0.08 145.33 -0.07 139.24 C-0.06 133.02 -0.05 126.8 -0.05 120.58 C-0.04 108.39 -0.02 96.19 0 84 C-8.58 84 -17.16 84 -26 84 C-26 74.76 -26 65.52 -26 56 C-17.42 56 -8.84 56 0 56 C0 37.52 0 19.04 0 0 Z " fill="#0F3261" transform="translate(775,21)"/>
<path d="M0 0 C40.92 22.83 82.8 38.48 129.91 25.64 C134.98 24.18 139.88 22.48 144.67 20.27 C145.24 20.07 145.8 19.87 146.39 19.67 C147.05 20 147.71 20.33 148.39 20.67 C134.98 29.84 121.1 35.82 105.39 39.67 C104.38 39.92 103.37 40.16 102.34 40.42 C63.44 48 25.5 34.15 -9.53 18.95 C-31.58 9.44 -55.44 2.1 -79.01 11.14 C-88.93 15.35 -97.88 20.39 -106.99 26.11 C-133.34 42.63 -161.7 53.84 -193.15 46.64 C-206.43 42.9 -218.68 36.27 -228.61 26.67 C-228.28 26.5 -228.28 26.5 -226.61 25.67 C-223.69 26.75 -220.89 28.05 -218.05 29.34 C-210.5 32.26 -203.29 33.03 -195.24 32.98 C-194.31 32.98 -193.38 32.97 -192.43 32.97 C-185.74 32.85 -179.88 32.13 -173.61 29.67 C-173.15 29.5 -173.15 29.5 -170.78 28.67 C-155.63 22.94 -142.48 12.47 -130.4 1.87 C-86.86 -36.31 -46.51 -25.95 0 0 Z " fill="#0F3261" transform="translate(246.6120147705078,223.33206176757813)"/>
<path d="M0 0 C0.82 -0 1.64 -0 2.49 -0 C9.78 0.06 16.67 0.95 23.88 2.19 C23.88 11.43 23.88 20.67 23.88 30.19 C19.91 29.86 15.95 29.53 11.88 29.19 C-4.27 28.45 -18.3 29.94 -31.31 40.38 C-42.55 50.8 -45.14 65.53 -46.12 80.19 C-46.24 83.94 -46.24 87.68 -46.22 91.43 C-46.22 91.96 -46.22 91.96 -46.22 94.65 C-46.21 96.93 -46.21 99.22 -46.2 101.51 C-46.19 105.12 -46.18 108.73 -46.18 112.35 C-46.16 120 -46.15 127.66 -46.12 135.31 C-46.1 144.22 -46.08 153.13 -46.07 162.03 C-46.06 165.6 -46.05 169.17 -46.04 172.74 C-46.03 174.91 -46.03 177.07 -46.03 179.24 C-46.02 180.24 -46.02 181.24 -46.01 182.27 C-46.01 183.17 -46.01 184.07 -46.01 185 C-46.01 185.79 -46.01 186.58 -46 187.39 C-46.12 189.19 -46.12 189.19 -47.12 190.19 C-49.42 190.28 -51.71 190.29 -54 190.29 C-54.35 190.28 -54.35 190.28 -56.08 190.28 C-58.29 190.28 -60.49 190.26 -62.69 190.25 C-64.18 190.24 -65.67 190.24 -67.15 190.24 C-70.81 190.23 -74.47 190.21 -78.12 190.19 C-78.2 174.43 -78.25 158.67 -78.28 142.9 C-78.3 135.59 -78.32 128.27 -78.35 120.95 C-78.38 114.56 -78.4 108.17 -78.41 101.78 C-78.41 98.41 -78.42 95.03 -78.44 91.66 C-78.61 63.42 -75.73 40.23 -55.12 19.19 C-54.61 18.63 -54.09 18.08 -53.55 17.51 C-39.94 4.32 -18.19 -0.01 0 0 Z " fill="#0897A5" transform="translate(1235.125,74.8125)"/>
<path d="M0 0 C15.11 12.18 29.21 25.68 42.86 39.46 C45.55 42.13 48.34 44.63 51.22 47.08 C53.53 49.07 55.75 51.13 57.98 53.19 C74.98 68.48 95.33 81.43 117.05 88.75 C117.88 89.04 118.72 89.32 119.58 89.61 C131.11 93.3 142.29 94.14 154.36 94.07 C155.65 94.07 156.95 94.08 158.28 94.09 C165.5 94.08 172.22 93.62 179.23 91.82 C169.21 102.52 149.29 105.37 135.37 106.16 C97.87 107.35 63.24 89.6 35.23 65.82 C33.42 64.36 31.61 62.9 29.8 61.44 C25.04 57.55 20.51 53.45 15.99 49.29 C12.4 46.06 8.65 43.04 4.89 40.02 C2.38 37.94 -0 35.78 -2.39 33.57 C-31.94 6.73 -68.67 -15.15 -109.72 -13.31 C-119.79 -12.69 -129.15 -10.11 -138.77 -7.18 C-141.1 -6.51 -143.43 -5.85 -145.77 -5.18 C-141.77 -9.62 -137.5 -12.35 -132.27 -15.18 C-131.46 -15.62 -130.66 -16.06 -129.83 -16.51 C-85.91 -40.01 -37.76 -29.82 0 0 Z " fill="#0897A5" transform="translate(246.765625,98.18359375)"/>
<path d="M0 0 C2.43 1.79 4.85 3.58 7.28 5.36 C8.66 6.38 10.04 7.4 11.42 8.42 C44.52 32.88 84.04 52.91 126.34 46.74 C132.86 45.66 139.17 43.88 145.5 42 C147.83 41.33 150.17 40.67 152.5 40 C138.41 55.01 111.68 61.57 91.83 62.2 C51.84 62.83 19.07 47.13 -13.5 25 C-16.06 23.29 -18.62 21.58 -21.19 19.88 C-22.39 19.07 -23.6 18.27 -24.8 17.46 C-26.04 16.64 -27.27 15.82 -28.5 15 C-29.16 14.56 -29.82 14.12 -30.5 13.67 C-63.16 -8.05 -96.01 -23.44 -136 -15.57 C-142.36 -14.12 -148.5 -11.92 -154.62 -9.68 C-157.23 -8.73 -159.86 -7.86 -162.5 -7 C-112.6 -58.43 -49.68 -36.65 0 0 Z " fill="#0070C8" transform="translate(261.5,174)"/>
<path d="M0 0 C10.89 0 21.78 0 33 0 C33.02 23.63 33.04 47.25 33.05 70.88 C33.06 81.85 33.06 92.82 33.08 103.79 C33.09 113.35 33.09 122.91 33.09 132.47 C33.1 137.53 33.1 142.6 33.11 147.66 C33.11 152.43 33.11 157.19 33.11 161.96 C33.11 163.71 33.12 165.45 33.12 167.2 C33.12 169.59 33.12 171.98 33.12 174.37 C33.12 175.06 33.13 175.75 33.13 176.46 C33.12 180.5 32.68 183.95 32 188 C21.44 188 10.88 188 0 188 C0 125.96 0 63.92 0 0 Z " fill="#0897A5" transform="translate(1094,77)"/>
<path d="M0 0 C5.32 2.65 8.61 6.41 10.82 11.91 C12.89 19.61 11.12 25.85 7.25 32.66 C2.46 37.08 -3.26 40.17 -9.87 40.41 C-16.94 39.95 -22.18 36.8 -27.18 31.91 C-30.8 26.3 -31.88 20.33 -30.56 13.84 C-28.57 7.27 -25.42 3.28 -19.37 -0.03 C-12.51 -3.11 -6.94 -2.93 0 0 Z " fill="#0897A5" transform="translate(1120.18359375,4.09375)"/>
<path d="M0 0 C4 1 4 1 5.92 3.72 C6.53 4.82 7.13 5.93 7.75 7.06 C8.36 8.17 8.98 9.27 9.61 10.41 C10.07 11.26 10.53 12.12 11 13 C13.46 10 15.73 7 17.75 3.69 C18.18 2.99 18.61 2.29 19.05 1.57 C19.36 1.05 19.68 0.54 20 0 C20.99 0.33 21.98 0.66 23 1 C23 8.92 23 16.84 23 25 C22.01 25 21.02 25 20 25 C19.67 19.39 19.34 13.78 19 8 C18.54 8.82 18.54 8.82 16.19 13 C14.61 15.81 14.61 15.81 13 18 C12.01 18 11.02 18 10 18 C7.68 14.84 5.93 11.42 4 8 C3.67 13.28 3.34 18.56 3 24 C2.01 24.33 1.02 24.66 0 25 C0 16.75 0 8.5 0 0 Z " fill="#0F3261" transform="translate(1069,318)"/>
<path d="M0 0 C3.26 1.38 4.84 2.76 6.8 5.7 C7.28 6.41 7.76 7.13 8.26 7.86 C8.75 8.61 9.24 9.36 9.75 10.12 C10.26 10.88 10.76 11.63 11.29 12.41 C12.53 14.27 13.77 16.13 15 18 C15.33 12.06 15.66 6.12 16 0 C16.99 0.33 17.98 0.66 19 1 C19 8.59 19 16.18 19 24 C17.68 24 16.36 24 15 24 C13.44 22.44 13.44 22.44 11.98 20.28 C11.46 19.51 10.93 18.75 10.38 17.96 C9.84 17.15 9.31 16.34 8.75 15.5 C8.47 15.09 8.47 15.09 7.07 13.04 C5.7 11.04 4.35 9.02 3 7 C2.67 12.94 2.34 18.88 2 25 C1.01 24.67 0.02 24.34 -1 24 C-1.03 20.19 -1.05 16.38 -1.06 12.56 C-1.07 11.47 -1.08 10.39 -1.09 9.26 C-1.09 8.23 -1.09 7.19 -1.1 6.13 C-1.1 5.17 -1.11 4.21 -1.11 3.22 C-1 1 -1 1 0 0 Z " fill="#0F3261" transform="translate(904,318)"/>
<path d="M0 0 C3.26 1.38 4.84 2.76 6.8 5.7 C7.28 6.41 7.76 7.13 8.26 7.86 C8.75 8.61 9.24 9.36 9.75 10.12 C10.26 10.88 10.76 11.63 11.29 12.41 C12.53 14.27 13.77 16.13 15 18 C15.33 12.06 15.66 6.12 16 0 C16.66 0 17.32 0 18 0 C18.9 5.36 19.12 10.5 19.06 15.94 C19.06 16.72 19.05 17.5 19.05 18.3 C19.04 20.2 19.02 22.1 19 24 C18.34 24.33 17.68 24.66 17 25 C13.15 21.36 10.13 17.58 7.19 13.19 C5.81 11.15 4.42 9.1 3 7 C2.67 12.94 2.34 18.88 2 25 C1.01 24.67 0.02 24.34 -1 24 C-1.03 20.19 -1.05 16.38 -1.06 12.56 C-1.07 11.47 -1.08 10.39 -1.09 9.26 C-1.09 8.23 -1.09 7.19 -1.1 6.13 C-1.1 5.17 -1.11 4.21 -1.11 3.22 C-1 1 -1 1 0 0 Z " fill="#0F3261" transform="translate(1139,318)"/>
<path d="M0 0 C4.27 1.07 4.55 1.21 6.8 4.6 C7.28 5.32 7.76 6.03 8.26 6.78 C8.75 7.53 9.24 8.28 9.75 9.06 C10.26 9.82 10.76 10.58 11.29 11.36 C12.53 13.23 13.77 15.12 15 17 C15.33 11.72 15.66 6.44 16 1 C16.99 0.67 17.98 0.34 19 0 C19 7.92 19 15.84 19 24 C14.5 22.87 14.5 22.87 12.46 19.91 C12.02 19.29 11.59 18.67 11.14 18.03 C10.7 17.38 10.26 16.73 9.81 16.06 C9.36 15.42 8.91 14.77 8.45 14.1 C5.23 9.45 5.23 9.45 4 7 C3.67 12.61 3.34 18.22 3 24 C2.01 24.33 1.02 24.66 0 25 C0 16.75 0 8.5 0 0 Z " fill="#0F3261" transform="translate(690,318)"/>
<path d="M0 0 C12 0 12 0 17 3 C18.28 6.69 18.32 8.31 16.69 11.88 C16.13 12.58 15.57 13.28 15 14 C14.34 14 13.68 14 13 14 C13.19 14.31 13.19 14.31 14.13 15.9 C14.6 16.72 15.08 17.53 15.56 18.38 C16.04 19.19 16.51 20 17 20.84 C17.33 21.55 17.66 22.26 18 23 C17.67 23.66 17.34 24.32 17 25 C13.61 21.87 11.39 19.43 10 15 C7.69 15 5.38 15 3 15 C3 17.97 3 20.94 3 24 C2.01 24 1.02 24 0 24 C0 16.08 0 8.16 0 0 Z M3 3 C3 5.97 3 8.94 3 12 C4.42 12.06 5.85 12.12 7.31 12.19 C8.11 12.22 8.91 12.26 9.74 12.29 C12 12 12 12 13.8 10.65 C15 9 15 9 14.81 6.38 C14 4 14 4 12 3 C9 2.86 6.01 2.96 3 3 Z " fill="#0F3261" transform="translate(405,318)"/>
<path d="M0 0 C3.74 1.66 5.83 3.56 8 7 C8.75 11.5 8.52 15.71 6.81 19.94 C3.66 23.53 1.28 24.86 -3.5 25.38 C-8.28 24.86 -10.66 23.53 -13.81 19.94 C-15.57 15.6 -15.81 11.61 -15 7 C-11.51 0.57 -6.99 -0.75 0 0 Z M-10.56 4.94 C-12.51 9.08 -12.93 12.5 -12 17 C-9.94 20.06 -9.94 20.06 -7 22 C-2.66 22.78 -0.79 22.5 2.94 20.12 C5.83 15.75 5.9 12.11 5 7 C3.56 4.38 3.56 4.38 1 3 C-3.55 2.14 -6.81 2.1 -10.56 4.94 Z " fill="#0F3261" transform="translate(535,318)"/>
<path d="M0 0 C2.96 2.58 3.87 4.19 4.5 8.06 C3.88 11.71 2.97 12.83 0 15 C-2.44 15.94 -2.44 15.94 -5 16 C-8.49 14.38 -9.84 13.24 -12 10 C-11.85 6.52 -11.35 4.51 -9.38 1.62 C-6.02 -0.67 -3.97 -0.64 0 0 Z " fill="#0F3261" transform="translate(14,202)"/>
<path d="M0 0 C3.31 2.76 4.87 5.55 5.57 9.83 C5.86 14.92 4.7 17.96 1.25 21.88 C-2.58 24.39 -6.27 24.03 -10.66 23.42 C-13.62 22.65 -15 21.35 -16.75 18.88 C-18.2 14.52 -18.39 10.42 -17.75 5.88 C-14.09 -1.18 -7.23 -2.96 0 0 Z M-13.25 3.25 C-15.6 7.37 -15.6 11.26 -14.75 15.88 C-12.69 19 -12.69 19 -9.75 20.88 C-5.94 21.41 -3.76 21.43 -0.38 19.56 C2.55 16.52 2.66 12.98 2.59 8.88 C2.25 6.88 2.25 6.88 0.25 3.88 C-4.32 0.83 -8.24 0.5 -13.25 3.25 Z " fill="#0F3261" transform="translate(741.75,319.125)"/>
<path d="M0 0 C12 0 12 0 17 3 C18.42 5.75 17.97 7.13 17.31 10.19 C17.1 10.65 17.1 10.65 16 13 C14.68 13.33 13.36 13.66 12 14 C13.98 16.97 15.96 19.94 18 23 C17.01 23.33 16.02 23.66 15 24 C14.64 23.43 14.27 22.87 13.9 22.29 C9.74 16.22 9.74 16.22 5.62 15 C4.76 15 3.89 15 3 15 C3 17.97 3 20.94 3 24 C2.01 24 1.02 24 0 24 C0 16.08 0 8.16 0 0 Z M3 3 C3 5.97 3 8.94 3 12 C4.42 12.06 5.85 12.12 7.31 12.19 C8.11 12.22 8.91 12.26 9.74 12.29 C12 12 12 12 13.8 10.65 C15 9 15 9 14.81 6.38 C14 4 14 4 12 3 C9 2.86 6.01 2.96 3 3 Z " fill="#0F3261" transform="translate(791,318)"/>
<path d="M0 0 C12.4 0 12.4 0 16 3 C17 4 17 4 17.25 7.38 C17 11 17 11 15.62 12.94 C14 14 14 14 12 14 C12.43 14.63 12.87 15.25 13.31 15.9 C13.87 16.72 14.43 17.53 15 18.38 C15.56 19.19 16.11 20 16.69 20.84 C18 23 18 23 18 25 C16.15 24.75 16.15 24.75 14 24 C12.73 22.19 12.73 22.19 11.62 20 C9.4 16.12 9.4 16.12 5.69 15 C4.8 15 3.91 15 3 15 C2.67 17.97 2.34 20.94 2 24 C1.34 24 0.68 24 0 24 C0 16.08 0 8.16 0 0 Z M3 3 C3 5.97 3 8.94 3 12 C9.84 12.2 9.84 12.2 12 12 C14 10 14 10 14.25 7.5 C14 5 14 5 12 3 C8.98 2.73 6.04 2.91 3 3 Z " fill="#0F3261" transform="translate(590,318)"/>
<path d="M0 0 C3.88 0.05 5.97 0.18 9.5 1.88 C11.9 5.22 11.84 7.29 11.25 11.31 C9.88 13.25 9.88 13.25 8.25 14.31 C7.59 14.31 6.93 14.31 6.25 14.31 C8.23 17.61 10.21 20.91 12.25 24.31 C10.93 24.31 9.61 24.31 8.25 24.31 C7.01 22.6 7.01 22.6 5.94 20.38 C4.69 18.16 4.69 18.16 3.25 16.31 C-0.56 15.31 -0.56 15.31 -3.75 15.31 C-3.75 18.61 -3.75 21.91 -3.75 25.31 C-4.74 24.98 -5.73 24.65 -6.75 24.31 C-6.78 20.5 -6.8 16.69 -6.81 12.88 C-6.82 11.79 -6.83 10.7 -6.84 9.58 C-6.84 8.54 -6.84 7.51 -6.85 6.44 C-6.85 5.48 -6.86 4.52 -6.86 3.54 C-6.64 -0.85 -3.79 0.09 0 0 Z M-3.75 3.31 C-3.75 6.28 -3.75 9.25 -3.75 12.31 C-2.13 12.37 -0.5 12.41 1.12 12.44 C2.03 12.46 2.93 12.48 3.87 12.51 C6.25 12.31 6.25 12.31 8.25 10.31 C8.5 7.81 8.5 7.81 8.25 5.31 C6.25 3.31 6.25 3.31 3.87 3.12 C2.96 3.14 2.06 3.16 1.12 3.19 C0.21 3.21 -0.7 3.22 -1.63 3.24 C-2.33 3.27 -3.03 3.29 -3.75 3.31 Z " fill="#0F3261" transform="translate(494.75,317.6875)"/>
<path d="M0 0 C0.38 -0 0.38 -0 2.32 -0.02 C4.44 0.25 4.44 0.25 7.44 2.25 C7.44 2.91 7.44 3.57 7.44 4.25 C7.02 4.23 7.02 4.23 4.92 4.14 C3.83 4.12 2.74 4.09 1.62 4.06 C0.55 4.03 -0.53 3.99 -1.64 3.96 C-4.56 4.25 -4.56 4.25 -6.39 5.52 C-8.39 8.48 -8.69 11.77 -8.56 15.25 C-7.22 18.25 -6.51 19.78 -3.56 21.25 C-2.19 21.32 -0.81 21.33 0.56 21.31 C1.84 21.29 3.12 21.27 4.44 21.25 C4.44 19.27 4.44 17.29 4.44 15.25 C3.12 14.92 1.8 14.59 0.44 14.25 C0.44 13.59 0.44 12.93 0.44 12.25 C2.75 12.25 5.06 12.25 7.44 12.25 C7.44 15.88 7.44 19.51 7.44 23.25 C3.14 25.4 1.15 25.66 -3.56 25.25 C-6.77 23.72 -9.28 21.97 -11.56 19.25 C-12.97 14.42 -13.28 9.76 -10.88 5.25 C-7.67 1.1 -5.2 -0.04 0 0 Z " fill="#0F3261" transform="translate(949.5625,317.75)"/>
<path d="M0 0 C1.77 1.53 1.77 1.53 3 3 C1 4 1 4 -2.31 3.38 C-6 3 -6 3 -8.81 4.19 C-11.2 6.17 -12.19 7.01 -13 10 C-13.06 13.83 -12.83 16.93 -10.44 20 C-6.86 21.47 -3.86 21.19 0 21 C0 19.02 0 17.04 0 15 C-1.32 14.67 -2.64 14.34 -4 14 C-4 13.34 -4 12.68 -4 12 C-1.69 12 0.62 12 3 12 C3.08 13.79 3.14 15.58 3.19 17.38 C3.2 17.87 3.2 17.87 3.29 20.4 C3.24 20.83 3.24 20.83 3 23 C-0.71 25.47 -3.7 25.55 -8 25 C-11.67 23.37 -14.08 21.55 -16 18 C-17.02 13.47 -17.39 11.13 -15.88 6.75 C-11.71 0.64 -7.33 -1.52 0 0 Z " fill="#0F3261" transform="translate(1020,318)"/>
<path d="M0 0 C4.95 0 9.9 0 15 0 C15 0.99 15 1.98 15 3 C11.04 3 7.08 3 3 3 C3 5.64 3 8.28 3 11 C6.63 11 10.26 11 14 11 C14 11.66 14 12.32 14 13 C10.37 13 6.74 13 3 13 C3 15.97 3 18.94 3 22 C6.96 22 10.92 22 15 22 C15 22.99 15 23.98 15 25 C13.44 25.03 11.88 25.05 10.31 25.06 C9.44 25.07 8.57 25.09 7.68 25.1 C5 25 5 25 0 24 C0 16.08 0 8.16 0 0 Z " fill="#0F3261" transform="translate(824,318)"/>
<path d="M0 0 C12 0 12 0 16 2 C17.56 5.12 17.56 8.6 17 12 C15.84 13.74 15.84 13.74 14 15 C11.3 15.29 11.3 15.29 8.31 15.19 C7.32 15.16 6.32 15.13 5.3 15.11 C4.54 15.07 3.78 15.04 3 15 C3 17.97 3 20.94 3 24 C2.01 24 1.02 24 0 24 C0 16.08 0 8.16 0 0 Z M3 3 C3 6.3 3 9.6 3 13 C6.3 12.67 9.6 12.34 13 12 C15.12 7.38 15.12 7.38 14 4 C10.57 2.29 6.78 2.95 3 3 Z " fill="#0F3261" transform="translate(558,318)"/>
<path d="M0 0 C0.99 0 1.98 0 3 0 C4.51 3.62 6 7.25 7.5 10.88 C7.93 11.91 8.36 12.94 8.8 14 C9 14.5 9 14.5 10.03 16.99 C10.41 17.9 10.79 18.81 11.17 19.75 C12 22 12 22 12 24 C11.01 24 10.02 24 9 24 C8.65 23.18 8.3 22.35 7.94 21.5 C6 19 6 19 3.73 18.46 C0.97 18.31 -1.31 18.35 -4 19 C-6.5 22 -6.5 22 -8 25 C-8.66 25 -9.32 25 -10 25 C-4.66 4.66 -4.66 4.66 0 0 Z M1 4 C0.32 5.24 -0.34 6.5 -1 7.75 C-1.37 8.45 -1.74 9.14 -2.12 9.86 C-3 12 -3 12 -3 16 C-0.03 16 2.94 16 6 16 C5.55 14.56 5.09 13.12 4.62 11.69 C4.37 10.89 4.11 10.09 3.85 9.26 C3 7 3 7 1 4 Z " fill="#0F3261" transform="translate(980,318)"/>
<path d="M0 0 C4.95 0 9.9 0 15 0 C15 0.99 15 1.98 15 3 C13.02 3.17 13.02 3.17 3 4 C3 6.31 3 8.62 3 11 C6.63 11 10.26 11 14 11 C14 11.66 14 12.32 14 13 C10.37 13.33 6.74 13.66 3 14 C3 16.31 3 18.62 3 21 C6.96 21.33 10.92 21.66 15 22 C14.67 22.99 14.34 23.98 14 25 C9.38 25 4.76 25 0 25 C0 16.75 0 8.5 0 0 Z " fill="#0F3261" transform="translate(873,318)"/>
<path d="M0 0 C1.87 0.24 1.87 0.24 4 1 C5.17 2.79 5.17 2.79 6.11 5.11 C6.45 5.95 6.79 6.79 7.15 7.65 C7.49 8.53 7.83 9.41 8.19 10.31 C8.37 10.75 8.37 10.75 9.26 12.94 C10.74 16.6 12.12 20.15 13 24 C12.01 24 11.02 24 10 24 C9.34 22.02 8.68 20.04 8 18 C4.04 18 0.08 18 -4 18 C-4.66 19.98 -5.32 21.96 -6 24 C-6.99 24 -7.98 24 -9 24 C-6.42 15.83 -3.23 7.93 0 0 Z M1 4 C0.33 5.62 -0.34 7.25 -1 8.88 C-1.37 9.78 -1.74 10.68 -2.12 11.62 C-3 14 -3 14 -3 16 C-0.03 16 2.94 16 6 16 C5.4 11.81 4.43 7.99 3 4 C2.34 4 1.68 4 1 4 Z " fill="#0F3261" transform="translate(359,318)"/>
<path d="M0 0 C4.95 0 9.9 0 15 0 C15 0.99 15 1.98 15 3 C11.04 3 7.08 3 3 3 C3 5.64 3 8.28 3 11 C6.63 11 10.26 11 14 11 C14 11.66 14 12.32 14 13 C10.37 13 6.74 13 3 13 C3 15.97 3 18.94 3 22 C7.29 22 11.58 22 16 22 C16 22.66 16 23.32 16 24 C10.72 24.33 5.44 24.66 0 25 C0 16.75 0 8.5 0 0 Z " fill="#0F3261" transform="translate(1108,318)"/>
<path d="M0 0 C4.95 0 9.9 0 15 0 C15 0.99 15 1.98 15 3 C13.02 3.17 13.02 3.17 3 4 C3 5.98 3 7.96 3 10 C6.63 10.33 10.26 10.66 14 11 C14 11.66 14 12.32 14 13 C10.37 13.33 6.74 13.66 3 14 C3 16.31 3 18.62 3 21 C6.96 21.33 10.92 21.66 15 22 C15 22.66 15 23.32 15 24 C9.98 24.63 5.07 25.13 0 25 C-0.94 21.88 -1.06 19.26 -0.88 16.02 C-0.83 15.08 -0.78 14.15 -0.73 13.18 C-0.68 12.22 -0.62 11.25 -0.56 10.25 C-0.51 9.27 -0.46 8.28 -0.4 7.27 C-0.27 4.85 -0.14 2.42 0 0 Z " fill="#0F3261" transform="translate(623,318)"/>
<path d="M0 0 C4.95 0.03 8.15 0.65 11.75 4.25 C12.1 7.93 12.21 10.4 10.44 13.69 C6.12 16.2 1.62 15.55 -3.25 15.25 C-3.25 18.55 -3.25 21.85 -3.25 25.25 C-3.91 25.25 -4.57 25.25 -5.25 25.25 C-6.17 19.75 -6.36 14.37 -6.38 8.81 C-6.38 8.09 -6.38 7.37 -6.39 6.62 C-6.37 0.46 -6.08 0.1 0 0 Z M-3.25 3.25 C-3.28 4.73 -3.3 6.21 -3.31 7.69 C-3.32 8.51 -3.34 9.33 -3.35 10.18 C-3.25 12.25 -3.25 12.25 -2.25 13.25 C1.41 13.39 4.26 13.41 7.75 12.25 C8.38 8.88 8.38 8.88 8.75 5.25 C6.75 3.25 6.75 3.25 4.37 3.05 C3.46 3.08 2.56 3.1 1.62 3.12 C0.71 3.14 -0.2 3.16 -1.13 3.18 C-1.83 3.2 -2.53 3.23 -3.25 3.25 Z " fill="#0F3261" transform="translate(462.25,317.75)"/>
<path d="M0 0 C4.95 0 9.9 0 15 0 C15 0.99 15 1.98 15 3 C10.71 3 6.42 3 2 3 C2.33 5.31 2.66 7.62 3 10 C6.63 10.33 10.26 10.66 14 11 C14 11.66 14 12.32 14 13 C10.37 13.33 6.74 13.66 3 14 C2.67 16.64 2.34 19.28 2 22 C6.29 22 10.58 22 15 22 C15 22.99 15 23.98 15 25 C10.05 24.67 5.1 24.34 0 24 C-0.2 21.31 -0.38 18.63 -0.56 15.94 C-0.62 15.19 -0.67 14.43 -0.73 13.66 C-0.78 12.91 -0.83 12.17 -0.88 11.4 C-0.93 10.73 -0.97 10.05 -1.02 9.36 C-0.99 6.22 -0.44 3.11 0 0 Z " fill="#0F3261" transform="translate(1039,318)"/>
<path d="M0 0 C2 2 2 2 2.31 5.44 C2 9 2 9 0.88 10.94 C-1.89 12.5 -3.88 12.39 -7 12 C-9.08 10.56 -9.81 9.4 -10.88 7.12 C-11.06 4.03 -9.79 2.46 -8 0 C-5.09 -1.45 -3.1 -0.71 0 0 Z " fill="#0F3261" transform="translate(50,220)"/>
<path d="M0 0 C6.27 0 12.54 0 19 0 C19 0.99 19 1.98 19 3 C16.36 3 13.72 3 11 3 C11 9.93 11 16.86 11 24 C10.01 24 9.02 24 8 24 C8 17.07 8 10.14 8 3 C5.36 3 2.72 3 0 3 C0 2.01 0 1.02 0 0 Z " fill="#0F3261" transform="translate(1171,318)"/>
<path d="M0 0 C5.94 0 11.88 0 18 0 C18 0.99 18 1.98 18 3 C15.36 3 12.72 3 10 3 C10 10.26 10 17.52 10 25 C9.01 24.67 8.02 24.34 7 24 C7 17.07 7 10.14 7 3 C4.69 3 2.38 3 0 3 C0 2.01 0 1.02 0 0 Z " fill="#0F3261" transform="translate(759,318)"/>
<path d="M0 0 C0.66 0 1.32 0 2 0 C2 7.26 2 14.52 2 22 C5.96 22 9.92 22 14 22 C14 22.99 14 23.98 14 25 C11.69 25.03 9.38 25.05 7.06 25.06 C5.77 25.07 4.49 25.09 3.16 25.1 C0 25 0 25 -1 24 C-1.1 22.3 -1.13 20.6 -1.13 18.91 C-1.13 18.39 -1.13 18.39 -1.14 15.79 C-1.13 14.7 -1.13 13.62 -1.12 12.5 C-1.13 11.42 -1.13 10.33 -1.14 9.21 C-1.14 8.18 -1.13 7.15 -1.13 6.09 C-1.13 5.14 -1.13 4.19 -1.13 3.21 C-1 1 -1 1 0 0 Z " fill="#0F3261" transform="translate(313,318)"/>
<path d="M0 0 C3 0.25 3 0.25 5 2.25 C5.33 5.38 5.48 7.43 3.88 10.19 C2 11.25 2 11.25 -1.06 11.12 C-4 10.25 -4 10.25 -6 7.25 C-5.56 2.74 -4.87 0.41 0 0 Z " fill="#0070C8" transform="translate(34,178.75)"/>
<path d="M0 0 C0.33 2.31 0.66 4.62 1 7 C-0.75 8.56 -0.75 8.56 -3 10 C-6 9.73 -6.83 9.17 -9 7 C-8.75 3.44 -8.75 3.44 -8 0 C-5.14 -1.43 -3.07 -0.6 0 0 Z " fill="#0F3261" transform="translate(9,164)"/>
<path d="M0 0 C3 0.25 3 0.25 5 2.25 C4.62 5.87 4.62 5.87 4 9.25 C0.63 9.88 0.63 9.88 -3 10.25 C-5 8.25 -5 8.25 -5.25 5.25 C-4.91 1.12 -4.13 0.34 0 0 Z " fill="#0F3261" transform="translate(55,108.75)"/>
<path d="M0 0 C0.99 0.1 1.98 0.21 3 0.31 C5 3.31 5 3.31 4.94 5.88 C4 8.31 4 8.31 1.69 9.81 C-1 10.31 -1 10.31 -3.31 9.25 C-5 7.31 -5 7.31 -5.38 4.75 C-4.8 0.99 -3.72 0.39 0 0 Z " fill="#0897A5" transform="translate(42,146.6875)"/>
<path d="M0 0 C0.99 0 1.98 0 3 0 C3 7.92 3 15.84 3 24 C2.01 24.33 1.02 24.66 0 25 C0 16.75 0 8.5 0 0 Z " fill="#0F3261" transform="translate(386,318)"/>
<path d="M0 0 C2.25 0.25 2.25 0.25 4 1 C4.62 3.88 4.62 3.88 5 7 C3 9 3 9 0.38 9.12 C-0.41 9.08 -1.19 9.04 -2 9 C-2.66 7.35 -3.32 5.7 -4 4 C-2.25 1.94 -2.25 1.94 0 0 Z " fill="#0F3261" transform="translate(90,202)"/>
<path d="M0 0 C2.56 0.19 2.56 0.19 4.56 2.19 C4.19 4.81 4.19 4.81 3.56 7.19 C-1.19 8.31 -1.19 8.31 -3.44 7.19 C-3.48 5.19 -3.48 3.19 -3.44 1.19 C-2.44 0.19 -2.44 0.19 0 0 Z " fill="#0F3261" transform="translate(17.4375,126.8125)"/>
<path d="M0 0 C0.38 2.33 0.71 4.66 1 7 C0 8 0 8 -2.56 8.06 C-3.37 8.04 -4.17 8.02 -5 8 C-5.66 6.35 -6.32 4.7 -7 3 C-4.5 -0 -4.26 0 0 0 Z " fill="#0897A5" transform="translate(69,142)"/>
<path d="M0 0 C2.56 -0.25 2.56 -0.25 5 0 C6 1 6 1 6.19 3.44 C6 6 6 6 4 8 C1.38 7.62 1.38 7.62 -1 7 C-1.62 5.19 -1.62 5.19 -2 3 C-1.34 2.01 -0.68 1.02 0 0 Z " fill="#0897A5" transform="translate(57,191)"/>
<path d="M0 0 C2.62 0.94 2.62 0.94 5 2 C5.04 3.67 5.04 5.33 5 7 C4 8 4 8 1.56 8.19 C-1 8 -1 8 -3 6 C-2.75 3.44 -2.75 3.44 -2 1 C-1.34 0.67 -0.68 0.34 0 0 Z " fill="#0897A5" transform="translate(72,168)"/>
<path d="M0 0 C0.6 0.23 1.2 0.45 1.81 0.69 C2.44 3.06 2.44 3.06 2.81 5.69 C2.15 6.35 1.49 7.01 0.81 7.69 C-1.81 7.31 -1.81 7.31 -4.19 6.69 C-4.88 4.88 -4.88 4.88 -5.19 2.69 C-3.58 0.24 -2.95 -0.42 0 0 Z " fill="#0897A5" transform="translate(94.1875,126.3125)"/>
<path d="M0 0 C2.06 0.44 2.06 0.44 4 1 C3.67 2.65 3.34 4.3 3 6 C1.35 5.67 -0.3 5.34 -2 5 C-1.12 1.12 -1.12 1.12 0 0 Z " fill="#0897A5" transform="translate(73,220)"/>
<path d="M0 0 C-0.88 6.75 -0.88 6.75 -2 9 C-2.66 9 -3.32 9 -4 9 C-3.41 2.85 -3.41 2.85 -3 1 C-1 0 -1 0 0 0 Z " fill="#0F3261" transform="translate(656,338)"/>
<path d="M0 0 C0.66 0 1.32 0 2 0 C1.67 2.31 1.34 4.62 1 7 C0.01 7.33 -0.98 7.66 -2 8 C-1.12 1.12 -1.12 1.12 0 0 Z " fill="#0F3261" transform="translate(338,318)"/>
<path d="M0 0 C2 1 2 1 2 1 Z " fill="#0897A5" transform="translate(395,242)"/>
<path d="" fill="#0F3261" transform="translate(0,0)"/>
</svg>
